/vscmnt/brussel_pixiu_data/_data_brussel/112/vsc11236/PredSimResults/SUBJ04opt3D/weighted/expIG/worker_04.mot
version=1
nRows=4
nColumns=50
inDegrees=yes
endheader
                time	         pelvis_tilt	         pelvis_list	     pelvis_rotation	           pelvis_tx	           pelvis_ty	           pelvis_tz	       hip_flexion_r	     hip_adduction_r	      hip_rotation_r	        knee_angle_r	       ankle_angle_r	         mtp_angle_r	       hip_flexion_l	     hip_adduction_l	      hip_rotation_l	        knee_angle_l	       ankle_angle_l	         mtp_angle_l	    lumbar_extension	      lumbar_bending	     lumbar_rotation	 ercspn_r/activation	 intobl_r/activation	 extobl_r/activation	    abd_r/activation	    add_r/activation	hamstrings_r/activation	bifemsh_r/activation	glut_max_r/activation	iliopsoas_r/activation	rect_fem_r/activation	  vasti_r/activation	gastroc_r/activation	 soleus_r/activation	tib_ant_r/activation	 ercspn_l/activation	 intobl_l/activation	 extobl_l/activation	    abd_l/activation	    add_l/activation	hamstrings_l/activation	bifemsh_l/activation	glut_max_l/activation	iliopsoas_l/activation	rect_fem_l/activation	  vasti_l/activation	gastroc_l/activation	 soleus_l/activation	tib_ant_l/activation	
          0.66513888	         -1.73555979	         -0.38228663	         -7.46413393	          0.59862500	          0.88077192	          0.00910888	        -12.94706862	         -0.04857904	         -7.04034764	         -7.27013898	         13.89467489	         19.87575734	         28.80263698	         -2.47148078	         -8.04730730	        -11.54645757	          4.20849492	          0.23707076	        -13.58247513	          3.63262178	          8.42408295	          0.03180342	          0.00999999	          0.00999999	          0.06331829	          0.00999999	          0.02564695	          0.32886003	          0.01674044	          0.02227793	          0.01000000	          0.00999999	          0.29226503	          0.27457381	          0.00999999	          0.04625352	          0.22624928	          0.01742715	          0.00999999	          0.36336680	          0.06672687	          0.03391403	          0.01415027	          0.16083929	          0.03361845	          0.03971216	          0.00999999	          0.01552976	          0.32947535	
          0.67844166	         -1.82346793	         -0.32832113	         -7.20895076	          0.61445474	          0.87839586	          0.00867573	        -13.59855687	         -0.19423042	         -7.72353262	         -7.93628857	         13.70380797	         21.36467381	         28.80111297	         -2.27096053	         -7.99334341	        -13.17382800	          4.03165582	          0.22377269	        -13.03550545	          2.91541329	          8.50547545	          0.03472048	          0.00999999	          0.00999999	          0.05182747	          0.00999999	          0.03773142	          0.27689925	          0.01370243	          0.01823500	          0.00999999	          0.00999999	          0.27550502	          0.27478541	          0.00999999	          0.03785957	          0.22303967	          0.01426452	          0.00999999	          0.29742403	          0.07436113	          0.02775941	          0.04043771	          0.13165064	          0.02751747	          0.03250531	          0.01221712	          0.01492581	          0.35211489	
          0.69174444	         -1.89592957	         -0.20157217	         -6.91050749	          0.63060557	          0.87625226	          0.00815168	        -14.14617275	         -0.42917360	         -8.45049138	         -8.85124821	         13.42588094	         22.92687572	         28.69469648	         -2.01850907	         -7.99190381	        -14.60720463	          3.62829397	          0.21543328	        -12.46234410	          2.09882298	          8.55056936	          0.03095409	          0.00999999	          0.00999999	          0.04242197	          0.00999999	          0.03088405	          0.22664837	          0.01121575	          0.01492576	          0.00999999	          0.00999999	          0.22550717	          0.26584161	          0.00999999	          0.03098892	          0.18256307	          0.01167584	          0.01787304	          0.24344838	          0.08269272	          0.02272171	          0.03309919	          0.10775906	          0.02252368	          0.09904109	          0.00999999	          0.01221712	          0.38159343	
          0.70504722	         -1.95357805	         -0.01795927	         -6.56953683	          0.64694185	          0.87451740	          0.00751058	        -14.54485091	         -0.74595587	         -9.21967454	        -10.07588521	         13.01149681	         24.55448889	         28.49112307	         -1.72059801	         -8.13243536	        -15.87678108	          3.19558953	          0.19386635	        -11.88580389	          1.20759711	          8.55534261	          0.04271485	          0.00999999	          0.00999999	          0.03472335	          0.00999999	          0.05287337	          0.18551687	          0.01079929	          0.01221708	          0.00999999	          0.00999999	          0.18458277	          0.25126106	          0.00999999	          0.02536514	          0.14943205	          0.00999999	          0.03367888	          0.21309904	          0.08385204	          0.01859824	          0.02709245	          0.08820326	          0.01843615	          0.18001318	          0.00999999	          0.00999999	          0.40740621	
